<svg xmlns="http://www.w3.org/2000/svg" viewBox="0 0 37.58 9"><defs><style>.cls-1,.cls-2{fill:none;stroke:#000;stroke-linecap:round;stroke-linejoin:round;}.cls-2{stroke-width:0.5px;}</style></defs><title>pandoseed</title><g id="Layer_2" data-name="Layer 2"><g id="Layer_1-2" data-name="Layer 1"><path class="cls-1" d="M.65.94s5-.88,5,1.78c0,.89-1,1.76-2.58,1.92C-.35,5-.35,8.06,3,8.06h.85c1.9,0,4.28-.92,3.77-7.12a12,12,0,0,1,5,0c-.46,6.53.66,7.18,1.76,7.12h.24V.94s3.45-1,3.45,3.49,3.55,3.63,3.55,3.63V.94s6-.88,6,3.56c0,3.56-4,3.56-4,3.56"/><path class="cls-1" d="M33.09,8.5h0a3.72,3.72,0,0,1-3.51-2.35A6.81,6.81,0,0,1,29.16,5v.89C28.59,1.89,33.09,1,33.09.5h0c0,.5,4.5,1.39,3.94,5.39V5C36.47,7,35.27,8.5,33.09,8.5Z"/><path class="cls-2" d="M29.65,5.39c.48-.88,5.66-2.09,7.11,0"/><path class="cls-2" d="M29.65,6.28c.48-.88,5.66-2.09,7.11,0"/></g></g></svg>