<svg xmlns="http://www.w3.org/2000/svg" viewBox="0 0 44.5 10.58"><defs><style>.cls-1{fill:none;stroke:#000;stroke-linecap:round;stroke-linejoin:round;}</style></defs><title>pandoline</title><g id="Layer_2" data-name="Layer 2"><g id="Layer_1-2" data-name="Layer 1"><path class="cls-1" d="M.5,4C.55.52,7.59-.85,7.5,4c-.07,4-5,4-5,2-2,0-3,4,1,4h0c9,0,6.07-7.26,6-8C9.36.59,16.94.34,16.5,2s-1,8,2,8h0c1.65,0,.58-6.13.15-8.27a.55.55,0,0,1,.64-.64c1.36.24,3.87,1.17,4,4.86C23.5,11,29.5,10,29.5,10s5,0,5-5-7-4-7-4c-1,1-1,5,0,7"/><path class="cls-1" d="M40,10h0c-2.21,0-4-2.13-4-4.75h0C36,2.63,37.79.5,40,.5h0c2.21,0,4,2.13,4,4.75h0C44,7.87,42.21,10,40,10Z"/></g></g></svg>